<?xml version="1.0" encoding="UTF-8"?>
<!-- Generator: visioncortex VTracer 0.6.2 -->
<svg version="1.1" xmlns="http://www.w3.org/2000/svg" width="1280" height="1280">
<path d="M0 0 C422.4 0 844.8 0 1280 0 C1280 422.4 1280 844.8 1280 1280 C857.6 1280 435.2 1280 0 1280 C0 857.6 0 435.2 0 0 Z " fill="#FCFDFF" transform="translate(0,0)"/>
<path d="M0 0 C1.40166664 -0.00956978 1.40166664 -0.00956978 2.83164978 -0.01933289 C3.84828201 -0.02044571 4.86491425 -0.02155853 5.91235352 -0.02270508 C6.94940933 -0.02603348 7.98646515 -0.02936188 9.0549469 -0.03279114 C11.25326085 -0.03786493 13.45158254 -0.04019932 15.64990234 -0.04003906 C19.02332177 -0.04222471 22.39641394 -0.06037347 25.76977539 -0.0793457 C27.90063364 -0.08227962 30.03149345 -0.08426443 32.16235352 -0.08520508 C33.17696152 -0.09239059 34.19156952 -0.09957611 35.23692322 -0.10697937 C36.17451981 -0.10390274 37.11211639 -0.10082611 38.078125 -0.09765625 C38.90561752 -0.09908127 39.73311005 -0.10050629 40.5856781 -0.10197449 C42.60375977 0.14526367 42.60375977 0.14526367 44.60375977 2.14526367 C45.19058984 4.81253572 45.66840055 7.42691568 46.08422852 10.12182617 C46.21776733 10.94272232 46.35130615 11.76361847 46.4888916 12.60939026 C46.77817721 14.39254465 47.06382226 16.17629255 47.34628296 17.96054077 C48.10355049 22.74216507 48.88718416 27.51949719 49.66625977 32.29760742 C49.82575607 33.2808046 49.98525238 34.26400177 50.14958191 35.2769928 C51.78121096 45.31012923 53.52442709 55.32268116 55.29125977 65.33276367 C55.43835388 66.16653534 55.585448 67.00030701 55.73699951 67.85934448 C55.88236145 68.68322662 56.02772339 69.50710876 56.17749023 70.35595703 C56.32018341 71.16479843 56.46287659 71.97363983 56.6098938 72.80699158 C56.88892964 74.38861352 57.16812094 75.97020805 57.44747925 77.55177307 C58.27137463 82.22563954 59.07507924 86.90242218 59.86157227 91.58276367 C60.13481323 93.1988855 60.13481323 93.1988855 60.41357422 94.84765625 C60.73442543 96.75297329 61.05110002 98.65900157 61.36230469 100.56591797 C62.05557857 104.6634952 62.83159917 108.34556562 64.60375977 112.14526367 C65.35491873 108.70801591 66.10463391 105.2704551 66.85375977 101.83276367 C67.08047363 100.79273193 67.3071875 99.7527002 67.54077148 98.68115234 C69.12556804 91.39275638 70.67940021 84.09858311 72.17114258 76.79052734 C73.02986091 72.64592619 73.99395527 68.54145471 75.03344727 64.43823242 C76.69466877 57.86970651 78.15801802 51.26405009 79.60375977 44.64526367 C81.2676877 37.02759358 82.99774914 29.43996275 84.91625977 21.88208008 C85.52648938 19.45286348 86.10567733 17.01990924 86.66625977 14.57885742 C86.82352539 13.90918945 86.98079102 13.23952148 87.14282227 12.54956055 C87.45792948 11.2050141 87.76485223 9.85853019 88.06469727 8.51049805 C88.93802304 4.85613077 89.57847088 2.44286995 92.60375977 0.14526367 C94.77333069 -0.22895813 94.77333069 -0.22895813 97.31884766 -0.22705078 C98.27316177 -0.23327957 99.22747589 -0.23950836 100.21070862 -0.2459259 C101.23889206 -0.23671616 102.2670755 -0.22750641 103.32641602 -0.21801758 C104.38283798 -0.21851608 105.43925995 -0.21901459 106.5276947 -0.2195282 C108.76115805 -0.21718716 110.99462401 -0.20745694 113.22802734 -0.19091797 C116.65624438 -0.16730531 120.08368512 -0.17035943 123.51196289 -0.17700195 C125.67928526 -0.17142606 127.84660434 -0.16431673 130.01391602 -0.15551758 C131.04412369 -0.15642899 132.07433136 -0.15734039 133.13575745 -0.15827942 C134.0869194 -0.14874741 135.03808136 -0.13921539 136.01806641 -0.12939453 C136.85729141 -0.12478714 137.69651642 -0.12017975 138.56117249 -0.11543274 C140.60375977 0.14526367 140.60375977 0.14526367 142.60375977 2.14526367 C143.2421875 4.29321289 143.2421875 4.29321289 143.78735352 6.94995117 C143.99295898 7.92706055 144.19856445 8.90416992 144.41040039 9.91088867 C144.72267578 11.4500293 144.72267578 11.4500293 145.04125977 13.02026367 C146.26766483 18.94724336 147.50347998 24.85740324 148.99829102 30.72338867 C150.91381451 38.25937274 152.58590769 45.84771079 154.27731323 53.43640137 C155.26274016 57.85347624 156.25551327 62.26889859 157.24829102 66.68432617 C157.44689224 67.56761597 157.64549347 68.45090576 157.85011292 69.36096191 C159.58307865 77.06295297 161.32063243 84.7638077 163.09509277 92.45635986 C163.53213387 94.35560535 163.96399868 96.2560396 164.39575195 98.15649414 C164.65904297 99.29231934 164.92233398 100.42814453 165.19360352 101.59838867 C165.41910889 102.5796875 165.64461426 103.56098633 165.87695312 104.57202148 C166.55345834 106.96717262 167.40504788 108.9718562 168.60375977 111.14526367 C168.70430664 109.85491211 168.80485352 108.56456055 168.90844727 107.23510742 C169.62056801 100.14739692 170.97299293 93.17640919 172.27111816 86.17849731 C175.49398314 68.77876594 178.42088973 51.33897956 181.20581055 33.86425781 C181.86445718 29.7373437 182.53386445 25.61236576 183.21630859 21.48931885 C183.47604163 19.91795033 183.7330111 18.34612269 183.98730469 16.77386475 C184.35203855 14.53984055 184.73316256 12.30925392 185.11938477 10.07885742 C185.33369141 8.80969482 185.54799805 7.54053223 185.76879883 6.23291016 C186.63433289 3.0322057 187.04410355 2.10327055 189.60375977 0.14526367 C191.74209595 -0.222229 191.74209595 -0.222229 194.24291992 -0.21118164 C195.18044098 -0.21418274 196.11796204 -0.21718384 197.08389282 -0.22027588 C198.09333954 -0.20792908 199.10278625 -0.19558228 200.14282227 -0.18286133 C201.17941986 -0.18098816 202.21601746 -0.17911499 203.2840271 -0.17718506 C205.47462176 -0.17046196 207.66520436 -0.15654242 209.85571289 -0.13598633 C213.22236182 -0.1047956 216.5885431 -0.09501278 219.95532227 -0.08911133 C222.08032802 -0.07994311 224.20532898 -0.06956791 226.33032227 -0.05786133 C227.34381744 -0.05361145 228.35731262 -0.04936157 229.40151978 -0.04498291 C230.33273651 -0.03537537 231.26395325 -0.02576782 232.22338867 -0.01586914 C233.45890976 -0.00562714 233.45890976 -0.00562714 234.71939087 0.00482178 C236.60375977 0.14526367 236.60375977 0.14526367 237.60375977 1.14526367 C237.47313969 8.04295409 235.92250639 14.67861752 234.19750977 21.32104492 C233.95695358 22.27195511 233.7163974 23.2228653 233.46855164 24.20259094 C232.95352432 26.23539822 232.43531092 28.26740055 231.91415405 30.29864502 C230.81184909 34.59570415 229.72555681 38.89676289 228.63822937 43.19763184 C228.08622333 45.38037 227.53341657 47.56290582 226.97981262 49.74523926 C224.52983082 59.40730393 222.14150868 69.08350281 219.79125977 78.77026367 C219.61011627 79.51574463 219.42897278 80.26122559 219.24234009 81.02929688 C216.39915605 92.73977387 213.64327139 104.46946873 210.92163086 116.20874023 C208.90909607 124.88013496 206.80093026 133.51898124 204.60375977 142.14526367 C204.26164134 143.51871969 203.92053343 144.89242773 203.58032227 146.26635742 C203.40654053 146.96712402 203.23275879 147.66789063 203.05371094 148.38989258 C202.57926963 150.30438419 202.10517162 152.21896086 201.63110352 154.13354492 C200.80817141 157.3991658 199.9280509 160.64762998 199.03955078 163.89599609 C198.77038345 164.8807341 198.50121613 165.86547211 198.22389221 166.88005066 C198.0192485 167.62757095 197.8146048 168.37509125 197.60375977 169.14526367 C190.07607197 169.19155657 182.54839889 169.22711732 175.02060127 169.24888802 C171.52532049 169.25933565 168.03013693 169.27351251 164.53491211 169.29614258 C160.51878921 169.3219832 156.5027688 169.33172833 152.48657227 169.34057617 C150.59903732 169.35606003 150.59903732 169.35606003 148.67337036 169.37185669 C147.51231781 169.37200775 146.35126526 169.37215881 145.1550293 169.37231445 C144.12910675 169.37675568 143.1031842 169.3811969 142.0461731 169.38577271 C139.60375977 169.14526367 139.60375977 169.14526367 137.60375977 167.14526367 C137.00749161 164.95176314 136.50669414 162.7319964 136.05297852 160.50463867 C135.84473953 159.50054459 135.84473953 159.50054459 135.6322937 158.47616577 C135.33430355 157.03566226 135.03968528 155.59445797 134.74807739 154.15264893 C134.13220224 151.10927362 133.49947619 148.06948483 132.86735535 145.02944946 C132.55098329 143.50762043 132.23540102 141.98562701 131.92060852 140.46347046 C130.73090258 134.71788434 129.48071222 128.98869841 128.16625977 123.27026367 C127.88588867 122.04182739 127.88588867 122.04182739 127.59985352 120.78857422 C126.44112944 115.73193644 125.26041771 110.68062638 124.07270813 105.6307373 C123.32672409 102.45208425 122.58696834 99.2719961 121.84786987 96.09173584 C121.48028482 94.51736175 121.10983568 92.94365329 120.73635864 91.3706665 C120.2098425 89.15258729 119.69301764 86.93243803 119.17797852 84.71166992 C118.93931564 83.72232704 118.93931564 83.72232704 118.6958313 82.71299744 C117.72103646 78.45445564 117.46202119 74.50609897 117.60375977 70.14526367 C116.61375977 70.14526367 115.62375977 70.14526367 114.60375977 70.14526367 C114.47420898 71.17006836 114.47420898 71.17006836 114.34204102 72.21557617 C112.53565558 85.17514873 109.45211624 97.90779212 106.22485352 110.57885742 C104.00764238 119.39299988 102.0791854 128.27454575 100.10375977 137.14526367 C99.3242552 140.64565621 98.54271785 144.14558622 97.76000977 147.64526367 C97.58804077 148.42063477 97.41607178 149.19600586 97.2388916 149.99487305 C95.80463098 156.40646252 94.21729239 162.7766453 92.60375977 169.14526367 C85.07607197 169.19155657 77.54839889 169.22711732 70.02060127 169.24888802 C66.52532049 169.25933565 63.03013693 169.27351251 59.53491211 169.29614258 C55.51878921 169.3219832 51.5027688 169.33172833 47.48657227 169.34057617 C45.59903732 169.35606003 45.59903732 169.35606003 43.67337036 169.37185669 C42.51231781 169.37200775 41.35126526 169.37215881 40.1550293 169.37231445 C39.12910675 169.37675568 38.1031842 169.3811969 37.0461731 169.38577271 C34.60375977 169.14526367 34.60375977 169.14526367 32.60375977 167.14526367 C31.91813251 164.71257316 31.33124141 162.32278136 30.79907227 159.85620117 C30.6338205 159.12011627 30.46856873 158.38403137 30.29830933 157.62564087 C29.76819467 155.25866445 29.24805426 152.8896352 28.72875977 150.52026367 C28.0469522 147.44405133 27.36118837 144.36873177 26.67407227 141.29370117 C26.50302475 140.52647232 26.33197723 139.75924347 26.15574646 138.96876526 C24.44102628 131.32564516 22.53596448 123.73579352 20.60375977 116.14526367 C19.97134035 113.63116924 19.33982496 111.11684722 18.70922852 108.60229492 C18.39695312 107.35851074 18.08467773 106.11472656 17.76293945 104.83325195 C7.23809567 62.85552075 7.23809567 62.85552075 2.95043945 43.19702148 C1.91055675 38.4512933 0.78839526 33.73190812 -0.39624023 29.02026367 C-0.55785645 28.37565186 -0.71947266 27.73104004 -0.88598633 27.06689453 C-1.75690107 23.61486579 -2.65370709 20.17092516 -3.57202148 16.73120117 C-3.7621582 16.00562012 -3.95229492 15.28003906 -4.14819336 14.5324707 C-4.51254722 13.14329227 -4.88453352 11.75608544 -5.26538086 10.37133789 C-6.14380142 6.99740439 -6.76205701 4.43600351 -5.39624023 1.14526367 C-3.81265419 -0.43832237 -2.19633663 0.01012704 0 0 Z " fill="#5575FE" transform="translate(452.396240234375,552.854736328125)"/>
<path d="M0 0 C0.87496124 -0.03535355 1.74992249 -0.07070709 2.65139771 -0.10713196 C6.66968491 -0.20954768 10.68727839 -0.2997306 14.70654297 -0.35351562 C16.82135319 -0.39158091 18.93588022 -0.45288784 21.04931641 -0.53808594 C38.53451124 -1.23765801 38.53451124 -1.23765801 43.79614258 2.62231445 C45.87771535 5.45959559 47.33562289 8.19461491 48.76904297 11.40161133 C49.67597365 12.81748614 50.60731585 14.21822793 51.56982422 15.59692383 C52.41025682 16.90477331 53.24745751 18.21470483 54.08154297 19.52661133 C55.03592216 21.01362123 55.99035053 22.50059958 56.94482422 23.98754883 C57.41871582 24.7284375 57.89260742 25.46932617 58.38085938 26.23266602 C60.50087601 29.54505219 62.63355137 32.84918667 64.76904297 36.15161133 C65.20192627 36.82144043 65.63480957 37.49126953 66.08081055 38.18139648 C71.60286 46.7112046 77.18332079 55.20302987 82.76098633 63.6965332 C86.32052053 69.11940648 89.87360946 74.54493843 93.36669922 80.01098633 C93.87845703 80.81084961 94.39021484 81.61071289 94.91748047 82.43481445 C95.83188661 83.86831027 96.74232307 85.30434944 97.64794922 86.7434082 C99.66939393 90.12674415 99.66939393 90.12674415 102.76904297 92.40161133 C102.77712982 91.2785257 102.78521667 90.15544006 102.79354858 88.99832153 C102.87091376 78.43264993 102.95862835 67.86710863 103.05657005 57.30160713 C103.10659199 51.86931047 103.15292136 46.43703381 103.19091797 41.00463867 C103.22769645 35.76557271 103.27403579 30.52667181 103.32710648 25.28774643 C103.34569009 23.28542847 103.36078325 21.28307507 103.37238693 19.2807045 C103.38918173 16.48375666 103.41819979 13.68719018 103.45019531 10.89038086 C103.4523555 10.05600494 103.45451569 9.22162903 103.45674133 8.36196899 C103.54093865 2.62971565 103.54093865 2.62971565 105.76904297 0.40161133 C107.67323303 0.15437317 107.67323303 0.15437317 110.01928711 0.15869141 C111.33558861 0.15407646 111.33558861 0.15407646 112.67848206 0.14936829 C114.10196205 0.16014656 114.10196205 0.16014656 115.55419922 0.17114258 C116.52562363 0.1716008 117.49704803 0.17205902 118.49790955 0.17253113 C120.5532249 0.17555509 122.60853792 0.18344567 124.66381836 0.19580078 C127.82202202 0.21405629 130.97993269 0.21631052 134.13818359 0.21606445 C136.13102469 0.22097951 138.12386378 0.22680778 140.11669922 0.23364258 C141.06771011 0.2347554 142.01872101 0.23586823 142.99855042 0.23701477 C143.87293259 0.24339462 144.74731476 0.24977448 145.64819336 0.25634766 C146.80829674 0.26206535 146.80829674 0.26206535 147.99183655 0.26789856 C149.76904297 0.40161133 149.76904297 0.40161133 150.76904297 1.40161133 C150.86599615 3.56587307 150.89091061 5.73336386 150.88929749 7.89979553 C150.89057912 8.93013236 150.89057912 8.93013236 150.89188665 9.98128408 C150.89354342 12.29988588 150.8880169 14.6184165 150.88256836 16.93701172 C150.8822865 18.59231057 150.88244419 20.24760955 150.88301086 21.90290833 C150.8832989 26.41098065 150.87740116 30.91902661 150.87043691 35.42709279 C150.86420442 40.1329887 150.86359965 44.83888515 150.8624115 49.54478455 C150.85929787 58.46249767 150.85108406 67.3801986 150.84106201 76.29790634 C150.82990184 86.4476743 150.82439067 96.59744283 150.81936657 106.74721539 C150.80890147 127.63202085 150.79130143 148.51681532 150.76904297 169.40161133 C144.20437926 169.63046841 137.64074859 169.78768092 131.07299805 169.89599609 C128.84083623 169.94116058 126.60893929 170.00250934 124.37768555 170.08056641 C121.16242151 170.19020211 117.9506835 170.24087371 114.73388672 170.28051758 C113.74194809 170.32696915 112.75000946 170.37342072 111.72801208 170.42127991 C107.49011854 170.42434317 104.84994511 170.37659865 101.62132645 167.46434402 C99.8281314 165.18226741 98.27562068 162.8800174 96.76904297 160.40161133 C95.93764576 159.20037879 95.101402 158.00245543 94.25634766 156.81079102 C93.48096173 155.6507384 92.70922785 154.48823751 91.94091797 153.32348633 C91.51391602 152.68222809 91.08691406 152.04096985 90.64697266 151.38027954 C89.26746515 149.30637715 87.89313309 147.22910615 86.51904297 145.15161133 C85.54952637 143.69134821 84.57979648 142.23122667 83.60986328 140.77124023 C77.21070357 131.12971812 70.85597752 121.4591135 64.51904297 111.77661133 C64.12405609 111.17313873 63.72906921 110.56966614 63.32211304 109.94790649 C56.91469985 100.15733131 56.91469985 100.15733131 54.04882812 95.76538086 C52.64760164 93.620266 51.24076372 91.47897887 49.83154297 89.33911133 C49.12126953 88.25500977 48.41099609 87.1709082 47.67919922 86.05395508 C45.60327216 83.02175954 45.60327216 83.02175954 41.76904297 79.40161133 C41.43904297 109.10161133 41.10904297 138.80161133 40.76904297 169.40161133 C29.41498047 169.43254883 29.41498047 169.43254883 17.83154297 169.46411133 C15.43912354 169.47321533 13.0467041 169.48231934 10.58178711 169.49169922 C8.69759172 169.49461825 6.8133957 169.49716684 4.92919922 169.49926758 C3.94109253 169.50438354 2.95298584 169.50949951 1.93493652 169.51477051 C0.53422913 169.51495178 0.53422913 169.51495178 -0.89477539 169.51513672 C-1.70973984 169.51735733 -2.52470428 169.51957794 -3.36436462 169.52186584 C-5.23095703 169.40161133 -5.23095703 169.40161133 -6.23095703 168.40161133 C-6.33226836 166.26728349 -6.36173619 164.12954208 -6.3646698 161.99281311 C-6.36693536 161.31550013 -6.36920091 160.63818714 -6.37153512 159.94034952 C-6.37790249 157.65406369 -6.37704402 155.36783672 -6.3762207 153.08154297 C-6.37921049 151.44919253 -6.3826126 149.8168428 -6.38639832 148.18449402 C-6.39526083 143.73827599 -6.39757737 139.29207719 -6.3982141 134.84585118 C-6.39916131 131.14036302 -6.40283743 127.43487938 -6.4063862 123.72939295 C-6.41453929 114.99065418 -6.41696965 106.25192572 -6.41625977 97.51318359 C-6.41565872 88.48422579 -6.42621392 79.45532768 -6.44200343 70.42638499 C-6.45505772 62.68711663 -6.46044455 54.94786783 -6.45980436 47.20858854 C-6.45954875 42.58071417 -6.46243434 37.95289282 -6.47298241 33.32502937 C-6.482628 28.97404372 -6.48276706 24.62316214 -6.47546577 20.27217293 C-6.47441551 18.67174122 -6.47680881 17.07130315 -6.48282623 15.47088242 C-6.49048715 13.29292826 -6.48594107 11.11533888 -6.47819519 8.93739319 C-6.47873996 7.71639451 -6.47928473 6.49539583 -6.479846 5.23739719 C-6.07570302 0.63268142 -4.1816248 0.15588971 0 0 Z " fill="#5575FE" transform="translate(898.23095703125,552.598388671875)"/>
<path d="M0 0 C1.56139206 0.0001133 1.56139206 0.0001133 3.15432739 0.00022888 C4.28144135 0.00539017 5.4085553 0.01055145 6.56982422 0.01586914 C7.72118866 0.01728409 8.8725531 0.01869904 10.05880737 0.02015686 C13.74740158 0.02576823 17.43593576 0.03832269 21.12451172 0.05102539 C23.62060459 0.05603892 26.11669842 0.06060208 28.61279297 0.06469727 C34.7417198 0.07574136 40.87061147 0.0924906 46.99951172 0.11352539 C50.1247284 6.85545482 52.77392174 13.7137523 55.30029297 20.69946289 C55.69975632 21.7958609 56.09921967 22.89225891 56.51078796 24.0218811 C57.78084599 27.50968571 59.04656178 30.99904657 60.31201172 34.48852539 C61.56342489 37.93009326 62.81573148 41.37133515 64.06808472 44.81256104 C64.8890672 47.06914962 65.70948215 49.32594477 66.52932739 51.58294678 C68.88749612 58.07250173 71.26785652 64.55326827 73.66748047 71.02758789 C76.28371391 78.09654859 78.79602478 85.19807298 81.272995 92.31689453 C84.57957969 101.80827236 87.98782251 111.26253438 91.40625 120.71411133 C92.50085801 123.7422498 93.59202845 126.77161315 94.68310547 129.80102539 C95.40259457 131.79341628 96.12264019 133.7856063 96.84326172 135.77758789 C97.19146973 136.74037659 97.53967773 137.70316528 97.8984375 138.69512939 C100.44773158 145.70046416 103.11719198 152.65324075 105.9432373 159.5519104 C107.33199239 163.01644178 107.99951172 165.32030278 107.99951172 169.11352539 C101.20020337 169.13882018 94.40090709 169.15636888 87.6015625 169.16845703 C85.28710476 169.17349482 82.97265022 169.1803252 80.65820312 169.18896484 C77.33706881 169.20105463 74.01597647 169.20675915 70.69482422 169.21118164 C69.13539597 169.21892357 69.13539597 169.21892357 67.54446411 169.2268219 C66.58361908 169.22689743 65.62277405 169.22697296 64.6328125 169.22705078 C63.36040207 169.2303817 63.36040207 169.2303817 62.06228638 169.23377991 C59.99951172 169.11352539 59.99951172 169.11352539 57.99951172 168.11352539 C57.05395508 165.81274414 57.05395508 165.81274414 56.08935547 162.80102539 C55.739375 161.72594727 55.38939453 160.65086914 55.02880859 159.54321289 C54.66851563 158.41141602 54.30822266 157.27961914 53.93701172 156.11352539 C53.21950448 153.88353831 52.49958362 151.65432587 51.77685547 149.42602539 C51.45966553 148.4321582 51.14247559 147.43829102 50.81567383 146.41430664 C50.20841589 144.17909001 50.20841589 144.17909001 48.99951172 143.11352539 C47.15833142 143.01971237 45.31353531 142.99608585 43.4699707 143 C42.28882187 143.00007553 41.10767303 143.00015106 39.89073181 143.00022888 C37.96264427 143.00797081 37.96264427 143.00797081 35.99560547 143.01586914 C34.68745377 143.01728409 33.37930206 143.01869904 32.0315094 143.02015686 C28.54788313 143.02398129 25.06429832 143.03381093 21.58068848 143.04486084 C18.02824464 143.05507657 14.47579412 143.05965483 10.92333984 143.06469727 C3.9487134 143.07543327 -3.02588545 143.09250879 -10.00048828 143.11352539 C-10.20137054 143.78641098 -10.40225281 144.45929657 -10.60922241 145.15257263 C-10.87546417 146.04259476 -11.14170593 146.93261688 -11.41601562 147.84960938 C-11.67877289 148.72874496 -11.94153015 149.60788055 -12.21224976 150.51365662 C-13.29546476 154.08645441 -14.4460378 157.63403368 -15.62548828 161.17602539 C-15.95033203 162.16892578 -15.95033203 162.16892578 -16.28173828 163.18188477 C-17.88078062 167.99381773 -17.88078062 167.99381773 -19.00048828 169.11352539 C-20.50365597 169.23595849 -22.01236996 169.29128824 -23.52026367 169.31884766 C-24.48118423 169.33879288 -25.4421048 169.3587381 -26.43214417 169.37928772 C-27.47692429 169.39600021 -28.52170441 169.41271271 -29.59814453 169.42993164 C-30.66213974 169.45071274 -31.72613495 169.47149384 -32.82237244 169.49290466 C-36.23584268 169.55851793 -39.64939257 169.61733962 -43.06298828 169.67602539 C-45.37093937 169.71919942 -47.67888228 169.76281333 -49.98681641 169.80688477 C-55.65795511 169.91421123 -61.3291738 170.01595531 -67.00048828 170.11352539 C-66.46284081 163.57254332 -64.75816515 158.07049476 -62.42626953 151.95727539 C-61.69508168 149.99512181 -60.9641308 148.0328799 -60.23339844 146.07055664 C-59.86055725 145.07813965 -59.48771606 144.08572266 -59.10357666 143.06323242 C-57.40425286 138.51916554 -55.75616004 133.95685633 -54.10595703 129.39477539 C-53.4605059 127.6175665 -52.81475169 125.84046765 -52.16870117 124.06347656 C-51.84563995 123.17453705 -51.52257874 122.28559753 -51.18972778 121.36972046 C-45.91735196 106.86325823 -40.63234646 92.36185789 -35.30297852 77.8762207 C-32.44047299 70.08050624 -29.61031874 62.2735075 -26.79345703 54.46118164 C-26.42043961 53.42724777 -26.04742218 52.3933139 -25.6631012 51.32804871 C-23.80591986 46.17970716 -21.95108968 41.03054056 -20.1003418 35.87988281 C-16.83687159 26.8132224 -13.54157412 17.75867847 -10.10986328 8.75415039 C-9.82451721 7.99148865 -9.53917114 7.2288269 -9.24517822 6.4430542 C-7.0381084 0.72394139 -5.98638542 -0.01445987 0 0 Z " fill="#5575FE" transform="translate(768.00048828125,552.886474609375)"/>
<path d="M0 0 C8.65660207 7.85289434 15.22134732 19.74174674 16.89453125 31.33203125 C16.90946328 33.6653168 16.91091589 35.99875544 16.89453125 38.33203125 C9.81041503 38.38261651 2.72634513 38.41771619 -4.35791016 38.44189453 C-6.76938619 38.45197079 -9.18084997 38.46563206 -11.59228516 38.48291016 C-15.0524396 38.50708715 -18.51243295 38.51849794 -21.97265625 38.52734375 C-23.05602264 38.53766632 -24.13938904 38.54798889 -25.25558472 38.55862427 C-26.25647125 38.55877533 -27.25735779 38.55892639 -28.28857422 38.55908203 C-29.61427933 38.56574387 -29.61427933 38.56574387 -30.96676636 38.57254028 C-33.10546875 38.33203125 -33.10546875 38.33203125 -35.10546875 36.33203125 C-35.39421875 35.40390625 -35.68296875 34.47578125 -35.98046875 33.51953125 C-37.19729459 30.07185804 -38.60743159 27.9814646 -41.10546875 25.33203125 C-46.11371776 23.66261491 -53.14112053 23.37637892 -58.10546875 25.33203125 C-59.43028421 27.72732794 -59.43028421 27.72732794 -60.10546875 30.33203125 C-60.60046875 31.32203125 -60.60046875 31.32203125 -61.10546875 32.33203125 C-61.56701343 36.40900922 -61.69222037 38.53013736 -59.23046875 41.89453125 C-50.15435814 48.97389753 -40.42297398 52.6458351 -29.66796875 56.33203125 C-12.45837301 62.24500274 6.051682 69.52896852 15.109375 86.625 C20.12938759 97.57613067 20.98802363 111.58029285 17.58203125 123.20703125 C17.05720553 124.5968475 16.49997367 125.97539175 15.89453125 127.33203125 C15.46140625 128.36328125 15.02828125 129.39453125 14.58203125 130.45703125 C6.33452759 144.50833378 -5.54304941 152.81726521 -21.10546875 157.33203125 C-42.43028026 162.37814307 -67.82792825 160.53778973 -86.86865234 149.29052734 C-101.08598958 140.47928871 -108.29387394 129.97731738 -112.7578125 113.8046875 C-113.14753117 111.03286822 -112.8571875 109.01674105 -112.10546875 106.33203125 C-110.52188271 104.74844521 -108.90556515 105.19689462 -106.70922852 105.18676758 C-105.77478409 105.18038773 -104.84033966 105.17400787 -103.87757874 105.16743469 C-102.8609465 105.16632187 -101.84431427 105.16520905 -100.796875 105.1640625 C-99.75981918 105.1607341 -98.72276337 105.1574057 -97.65428162 105.15397644 C-95.45596766 105.14890265 -93.25764598 105.14656825 -91.05932617 105.14672852 C-87.68590674 105.14454287 -84.31281458 105.12639411 -80.93945312 105.10742188 C-78.80859487 105.10448795 -76.67773506 105.10250315 -74.546875 105.1015625 C-73.532267 105.09437698 -72.517659 105.08719147 -71.4723053 105.07978821 C-70.53470871 105.08286484 -69.59711212 105.08594147 -68.63110352 105.08911133 C-67.80361099 105.08768631 -66.97611847 105.08626129 -66.12355042 105.08479309 C-64.10546875 105.33203125 -64.10546875 105.33203125 -62.10546875 107.33203125 C-61.62723075 108.6091755 -61.19385496 109.90353623 -60.79296875 111.20703125 C-59.13032312 115.88110137 -56.52941006 118.12006059 -52.10546875 120.33203125 C-49.64852967 120.53556467 -47.25304222 120.65543772 -44.79296875 120.70703125 C-42.81876953 120.78050781 -42.81876953 120.78050781 -40.8046875 120.85546875 C-36.99500025 120.62022059 -36.99500025 120.62022059 -34.16015625 118.1171875 C-31.40383662 114.38095956 -31.42194824 112.25109591 -31.71484375 107.7578125 C-32.35398481 103.78874653 -33.18746333 102.18519211 -36.10546875 99.33203125 C-44.17978019 94.50046747 -53.26019838 91.89616406 -62.15185547 89.00585938 C-79.85585411 83.19459891 -99.95187142 75.47678288 -109.0390625 57.9921875 C-114.42672311 44.55263851 -113.70047085 31.75088878 -109.10546875 18.33203125 C-103.19573557 4.72553682 -93.39704421 -2.80681883 -80.10546875 -8.66796875 C-79.45707031 -8.98507812 -78.80867188 -9.3021875 -78.140625 -9.62890625 C-54.98365637 -20.63527722 -19.73431018 -15.6336743 0 0 Z " fill="#5575FE" transform="translate(337.10546875,564.66796875)"/>
<path d="M0 0 C0.77419785 0.00142502 1.54839569 0.00285004 2.34605408 0.00431824 C3.66235558 -0.00029671 3.66235558 -0.00029671 5.00524902 -0.00500488 C6.42872902 0.00577339 6.42872902 0.00577339 7.88096619 0.01676941 C8.85239059 0.01722763 9.823815 0.01768585 10.82467651 0.01815796 C12.87999186 0.02118192 14.93530489 0.0290725 16.99058533 0.04142761 C20.14878899 0.05968312 23.30669966 0.06193735 26.46495056 0.06169128 C28.45779166 0.06660634 30.45063075 0.07243461 32.44346619 0.07926941 C33.86998253 0.08093864 33.86998253 0.08093864 35.32531738 0.0826416 C36.19969955 0.08902145 37.07408173 0.09540131 37.97496033 0.10197449 C39.13506371 0.10769218 39.13506371 0.10769218 40.31860352 0.11352539 C42.09580994 0.24723816 42.09580994 0.24723816 43.09580994 1.24723816 C43.19276312 3.4114999 43.21767758 5.57899069 43.21606445 7.74542236 C43.21691888 8.43231358 43.2177733 9.11920481 43.21865362 9.82691091 C43.22031039 12.14551271 43.21478387 14.46404333 43.20933533 16.78263855 C43.20905347 18.4379374 43.20921116 20.09323638 43.20977783 21.74853516 C43.21006587 26.25660748 43.20416812 30.76465345 43.19720387 35.27271962 C43.19097139 39.97861553 43.19036662 44.68451198 43.18917847 49.39041138 C43.18606484 58.3081245 43.17785103 67.22582543 43.16782898 76.14353317 C43.15666881 86.29330113 43.15115763 96.44306966 43.14613354 106.59284222 C43.13566844 127.47764769 43.1180684 148.36244216 43.09580994 169.24723816 C36.56302208 169.27250818 30.03024673 169.29007108 23.49742126 169.3021698 C21.27313262 169.30721133 19.04884731 169.31404439 16.8245697 169.32267761 C13.63502685 169.33475114 10.44552765 169.34046812 7.25596619 169.34489441 C5.75441734 169.35263634 5.75441734 169.35263634 4.22253418 169.36053467 C3.30165512 169.3606102 2.38077606 169.36068573 1.43199158 169.36076355 C0.61702713 169.36298416 -0.19793732 169.36520477 -1.03759766 169.36749268 C-2.90419006 169.24723816 -2.90419006 169.24723816 -3.90419006 168.24723816 C-4.00550139 166.11291032 -4.03496922 163.97516891 -4.03790283 161.83843994 C-4.04016839 161.16112696 -4.04243394 160.48381397 -4.04476815 159.78597635 C-4.05113552 157.49969052 -4.05027705 155.21346355 -4.04945374 152.9271698 C-4.05244352 151.29481936 -4.05584563 149.66246964 -4.05963135 148.03012085 C-4.06849386 143.58390282 -4.0708104 139.13770402 -4.07144713 134.69147801 C-4.07239435 130.98598985 -4.07607046 127.28050621 -4.07961923 123.57501978 C-4.08777232 114.83628101 -4.09020268 106.09755256 -4.0894928 97.35881042 C-4.08889175 88.32985262 -4.09944695 79.30095451 -4.11523646 70.27201182 C-4.12829075 62.53274346 -4.13367759 54.79349466 -4.13303739 47.05421537 C-4.13278178 42.42634101 -4.13566737 37.79851965 -4.14621544 33.1706562 C-4.15586103 28.81967055 -4.1560001 24.46878898 -4.14869881 20.11779976 C-4.14764854 18.51736805 -4.15004185 16.91692999 -4.15605927 15.31650925 C-4.16372018 13.13855509 -4.1591741 10.96096571 -4.15142822 8.78302002 C-4.15197299 7.56202134 -4.15251776 6.34102266 -4.15307903 5.08302402 C-3.87010296 1.85885719 -3.38895032 0.44001797 0 0 Z " fill="#5575FE" transform="translate(381.90419006347656,552.7527618408203)"/>
<path d="M0 0 C3.86921347 2.57947565 4.43462845 5.41338062 5.77734375 9.6484375 C6.15627525 10.80008896 6.15627525 10.80008896 6.54286194 11.9750061 C7.35098991 14.43855961 8.14446571 16.90655132 8.9375 19.375 C9.46712655 20.99901536 9.9977155 22.6227172 10.52929688 24.24609375 C11.55650263 27.38752927 12.57914235 30.53038241 13.59716797 33.67480469 C14.82560248 37.46666089 16.06426931 41.25495203 17.31640625 45.0390625 C17.6213501 45.96154785 17.92629395 46.8840332 18.24047852 47.83447266 C18.95229514 50.00957731 18.95229514 50.00957731 20 52 C8.45 52 -3.1 52 -15 52 C-16.18007803 47.27968787 -15.15723497 44.56944457 -13.61328125 40.15625 C-13.35500046 39.39131226 -13.09671967 38.62637451 -12.83061218 37.83825684 C-12.00105342 35.38870523 -11.15710032 32.94440103 -10.3125 30.5 C-9.76270168 28.88574678 -9.21386351 27.2711662 -8.66601562 25.65625 C-7.60613149 22.53600465 -6.54106612 19.41761462 -5.47119141 16.30078125 C-3.61225606 10.87884885 -1.79981725 5.44183996 0 0 Z " fill="#FCFDFF" transform="translate(787,607)"/>
</svg>
