<?xml version="1.0" standalone="no"?>
<!DOCTYPE svg PUBLIC "-//W3C//DTD SVG 20010904//EN"
 "http://www.w3.org/TR/2001/REC-SVG-20010904/DTD/svg10.dtd">
<svg version="1.0" xmlns="http://www.w3.org/2000/svg"
 width="500.000000pt" height="500.000000pt" viewBox="0 0 500.000000 500.000000"
 preserveAspectRatio="xMidYMid meet">

<g transform="translate(0.000000,500.000000) scale(0.100000,-0.100000)"
fill="#000000" stroke="none">
<path d="M2240 4973 c-167 -10 -453 -50 -670 -94 -170 -35 -492 -137 -748
-236 l-92 -36 0 -1473 0 -1473 62 -118 c116 -224 279 -480 386 -606 215 -255
457 -436 767 -574 285 -128 363 -171 482 -267 l81 -64 33 35 c19 19 70 59 115
89 80 53 291 164 313 164 14 0 206 96 326 163 178 100 385 278 531 457 134
165 249 345 374 583 l70 134 0 1474 0 1474 -93 37 c-148 59 -502 174 -632 207
-414 102 -897 148 -1305 124z m675 -117 c404 -50 866 -170 1160 -301 28 -12
60 -25 72 -29 l23 -7 3 -577 c2 -317 3 -948 2 -1402 l0 -825 -81 -155 c-199
-381 -427 -672 -665 -847 -141 -103 -227 -153 -414 -240 -272 -125 -364 -176
-445 -246 l-76 -64 -63 58 c-74 66 -189 131 -457 257 -294 138 -435 234 -610
413 -122 126 -187 207 -286 359 -91 141 -109 171 -192 334 l-66 129 0 1403 0
1402 78 33 c122 51 303 116 383 139 406 113 616 154 909 180 145 12 580 4 725
-14z"/>
<path d="M2310 4774 c-136 -10 -300 -29 -415 -49 -252 -45 -291 -53 -382 -79
-163 -46 -553 -186 -580 -208 -10 -8 -13 -288 -13 -1337 l0 -1326 23 -55 c29
-70 150 -285 231 -409 95 -146 217 -292 337 -402 159 -146 290 -227 587 -363
181 -83 237 -115 332 -193 35 -29 67 -53 71 -53 3 0 39 26 78 59 68 55 213
140 291 171 116 45 395 196 480 259 149 110 316 287 442 466 64 91 201 328
250 431 l38 82 0 1334 0 1335 -37 15 c-80 33 -233 89 -345 127 -432 148 -967
223 -1388 195z m81 -216 c1 -64 17 -96 18 -36 1 56 9 78 27 78 11 0 14 -25 14
-125 0 -77 -4 -125 -10 -125 -6 0 -11 35 -12 83 -1 45 -3 64 -5 42 -7 -86 -15
-125 -24 -120 -5 4 -9 23 -10 43 0 20 -5 46 -10 57 -7 14 -8 6 -5 -31 3 -27 0
-57 -5 -65 -5 -9 -9 33 -9 114 0 106 2 127 15 127 11 0 15 -12 16 -42z m133
15 c9 -43 36 -205 36 -214 0 -23 -21 -6 -26 21 -4 20 -13 30 -24 30 -12 0 -21
-10 -25 -30 -10 -45 -29 -38 -21 8 3 20 11 71 17 112 6 41 13 81 15 88 6 21
22 13 28 -15z m106 8 c13 -25 13 -61 0 -61 -5 0 -10 6 -10 14 0 22 -19 30 -26
11 -4 -10 4 -27 21 -45 21 -22 27 -37 27 -74 0 -48 -14 -76 -38 -76 -17 0 -34
32 -34 64 0 31 17 35 22 6 4 -29 22 -30 26 -2 2 13 -7 35 -22 53 -37 44 -31
129 9 129 8 0 19 -9 25 -19z m50 -106 c0 -77 -4 -125 -10 -125 -6 0 -10 48
-10 125 0 77 4 125 10 125 6 0 10 -48 10 -125z m-454 70 c39 -104 -21 -267
-68 -182 -19 35 -16 168 5 200 25 39 43 33 63 -18z m105 18 c8 -20 8 -41 0
-74 -9 -32 -9 -53 -1 -73 12 -34 13 -66 1 -66 -5 0 -15 17 -21 38 -22 72 -20
68 -30 52 -6 -8 -10 -32 -10 -52 0 -21 -4 -38 -10 -38 -6 0 -10 47 -10 120 l0
120 35 0 c29 0 37 -5 46 -27z m465 13 c16 -12 19 -29 22 -98 3 -97 -10 -131
-51 -136 l-27 -3 0 125 c0 115 2 126 18 126 10 0 27 -6 38 -14z m-666 -15 c0
-12 -9 -21 -25 -25 -32 -8 -37 -56 -6 -56 19 0 35 -23 24 -34 -4 -3 -15 -6
-25 -6 -15 0 -18 -8 -18 -55 0 -30 -4 -55 -10 -55 -16 0 -13 237 3 243 30 13
57 7 57 -12z m779 -111 c11 -66 15 -119 10 -124 -9 -10 -15 2 -21 39 -2 12
-12 21 -26 23 -18 3 -22 -1 -22 -22 0 -14 -4 -26 -10 -26 -5 0 -10 5 -10 11 0
17 31 201 36 218 10 30 23 -8 43 -119z m-869 -6 c0 -144 -13 -161 -41 -53
l-17 64 -1 -67 c-1 -38 -5 -68 -11 -68 -13 0 -14 227 -1 235 5 3 17 -21 26
-52 9 -32 18 -62 20 -68 2 -5 4 23 4 63 1 41 5 72 11 72 6 0 10 -49 10 -126z
m926 99 c3 -16 12 -50 19 -78 l13 -50 1 73 c1 41 5 72 11 72 6 0 10 -48 10
-125 0 -127 -10 -159 -29 -87 -30 113 -29 112 -30 40 -1 -38 -5 -68 -11 -68
-6 0 -10 48 -10 125 0 75 4 125 10 125 5 0 12 -12 16 -27z m-1023 -104 c-2
-133 -1 -129 -13 -129 -6 0 -10 47 -10 121 0 88 3 120 12 117 8 -3 11 -37 11
-109z m-73 2 c0 -99 -8 -153 -21 -145 -10 6 -12 227 -3 237 17 17 24 -11 24
-92z m1231 52 l0 -48 19 43 c11 23 24 42 30 42 14 0 13 -14 -6 -53 -15 -32
-15 -39 4 -111 11 -42 16 -79 11 -82 -10 -6 -28 35 -36 83 -8 46 -23 31 -23
-22 0 -24 -4 -47 -10 -50 -6 -4 -10 38 -10 119 0 77 4 126 10 126 6 0 10 -21
11 -47z m-1293 25 c14 -14 16 -58 3 -58 -5 0 -12 8 -16 18 -6 16 -7 16 -21 -2
-23 -32 -17 -156 7 -156 19 0 27 44 11 56 -20 15 -8 44 18 44 17 0 20 -6 20
-48 0 -54 -21 -92 -51 -92 -27 0 -41 41 -41 122 0 94 35 151 70 116z m1439
-25 c23 -34 26 -181 4 -206 -36 -45 -72 3 -74 100 -2 72 16 133 39 133 7 0 22
-12 31 -27z m-1537 -12 c16 -32 13 -173 -6 -199 -19 -27 -50 -29 -64 -3 -16
32 -13 173 6 199 19 27 50 29 64 3z m1611 -40 c1 -25 5 -57 9 -71 8 -25 8 -24
9 5 2 61 14 105 27 105 11 0 14 -25 14 -120 0 -73 -4 -120 -10 -120 -5 0 -11
28 -12 63 l-1 62 -6 -54 c-9 -85 -27 -75 -39 21 l-9 83 -2 -83 c0 -53 -5 -81
-11 -77 -11 7 -14 227 -4 238 17 17 34 -8 35 -52z m-1751 -66 c0 -95 0 -95 25
-95 41 0 28 -33 -17 -44 l-28 -6 0 120 c0 73 4 120 10 120 6 0 10 -38 10 -95z
m1850 3 c0 -97 11 -136 30 -108 5 8 10 52 10 98 0 48 4 82 10 82 11 0 12 -170
1 -210 -4 -16 -14 -25 -26 -25 -11 0 -25 11 -32 25 -15 30 -18 230 -3 230 6 0
10 -38 10 -92z m-1899 45 c14 -37 11 -139 -6 -178 -42 -102 -100 -7 -75 124
16 86 58 114 81 54z m2003 -5 c3 -13 11 -50 19 -83 l15 -60 1 73 c1 41 5 72
11 72 6 0 10 -47 10 -121 0 -140 -13 -154 -41 -43 l-17 69 -1 -67 c0 -38 -5
-68 -11 -68 -6 0 -10 48 -10 125 0 75 4 125 10 125 5 0 12 -10 14 -22z m-2104
-118 c0 -92 -3 -120 -13 -120 -7 0 -20 25 -29 58 l-16 57 -1 -67 c-1 -38 -5
-68 -11 -68 -13 0 -14 237 -1 244 5 3 15 -18 21 -47 20 -86 29 -89 30 -9 0 41
4 72 10 72 6 0 10 -47 10 -120z m2200 -16 c0 -81 -4 -123 -10 -119 -6 4 -10
57 -10 126 0 73 4 119 10 119 6 0 10 -49 10 -126z m-2300 92 c0 -7 -7 -30 -16
-51 -14 -35 -14 -41 5 -98 25 -72 25 -77 7 -77 -8 0 -19 19 -25 47 -14 56 -31
43 -31 -24 0 -23 -4 -45 -10 -48 -6 -4 -10 38 -10 119 0 73 4 126 9 126 6 0
11 -21 13 -47 l3 -48 18 58 c17 52 37 76 37 43z m2341 -33 l0 -48 16 38 c8 20
21 37 29 37 18 0 18 -12 -2 -54 -16 -32 -16 -39 3 -112 l20 -79 8 50 c16 106
31 170 40 170 9 0 37 -139 47 -229 4 -39 -16 -34 -22 6 -4 25 -11 34 -27 36
-18 3 -23 -2 -23 -17 0 -14 -6 -21 -20 -21 -23 0 -35 21 -45 78 -9 56 -25 54
-25 -3 0 -25 -4 -45 -10 -45 -6 0 -10 47 -10 120 0 73 4 120 10 120 6 0 10
-21 11 -47z m-2441 -11 c0 -11 -11 -24 -25 -30 -15 -7 -25 -20 -25 -32 0 -17
4 -19 25 -14 21 5 25 3 25 -15 0 -14 -9 -25 -25 -31 -19 -7 -25 -17 -25 -40 0
-27 2 -30 25 -24 20 5 25 3 25 -14 0 -13 -10 -24 -31 -31 -18 -6 -34 -11 -35
-11 -2 0 -4 53 -4 118 0 113 1 119 23 130 33 16 47 14 47 -6z m-80 -32 c0 -11
-7 -23 -15 -26 -12 -5 -15 -26 -15 -104 0 -55 -4 -102 -10 -105 -6 -4 -10 30
-10 94 0 85 -2 99 -15 95 -31 -12 -15 32 18 49 42 21 47 21 47 -3z m2757 -27
c9 -22 9 -34 2 -39 -6 -3 -13 3 -16 15 -3 12 -12 21 -20 21 -19 0 -8 -37 19
-67 25 -27 36 -106 18 -128 -27 -32 -51 -13 -65 53 -4 19 -3 32 3 32 6 0 13
-13 17 -30 7 -33 22 -39 32 -14 3 8 -4 29 -17 46 -23 32 -38 104 -26 133 9 25
38 13 53 -22z m51 -117 c2 -92 0 -117 -10 -114 -9 3 -14 37 -16 122 -2 92 0
117 10 114 9 -3 14 -37 16 -122z m-2426 -277 c12 -6 40 -29 64 -51 l44 -41 0
-637 0 -638 74 -64 c41 -34 127 -109 190 -166 139 -124 159 -129 164 -43 5 79
-1 91 -65 145 -32 26 -88 77 -125 112 l-68 64 0 85 0 85 -45 41 c-32 29 -45
49 -45 68 0 15 -5 32 -11 38 -13 13 -4 33 16 33 20 0 29 -20 16 -33 -23 -23
-11 -56 34 -98 l45 -42 0 -88 0 -88 130 -117 130 -117 0 -68 c0 -54 3 -69 15
-69 9 0 12 6 9 15 -4 8 -1 15 5 15 7 0 11 39 11 119 l0 119 -116 103 c-65 57
-123 110 -130 117 -11 10 -14 49 -14 156 l0 142 -70 63 -70 62 0 -44 c0 -38 5
-49 31 -71 17 -14 41 -26 55 -26 19 0 24 -5 24 -25 0 -16 -6 -25 -15 -25 -19
0 -21 -60 -3 -78 16 -16 -4 -37 -27 -28 -12 4 -14 10 -5 25 15 29 12 71 -5 77
-8 4 -15 18 -15 34 0 19 -8 33 -25 44 -22 14 -25 24 -25 71 0 30 4 55 9 55 5
0 26 -17 47 -38 22 -21 54 -48 72 -61 l32 -22 0 -149 0 -149 78 -67 c42 -37
101 -89 130 -116 l52 -49 0 -112 c1 -82 5 -117 15 -131 8 -11 18 -17 21 -13 4
4 6 73 5 154 l-2 148 -43 40 c-24 22 -78 71 -120 108 l-76 68 0 141 0 141 -80
76 c-75 71 -80 79 -80 117 0 35 -5 45 -40 73 l-40 32 2 257 3 257 2 -250 3
-249 27 -28 c15 -15 30 -28 35 -28 13 0 10 484 -3 497 -13 13 -4 33 16 33 20
0 29 -20 16 -33 -7 -7 -11 -90 -11 -258 l0 -248 33 -22 c47 -32 57 -48 57 -90
0 -32 7 -43 43 -74 l42 -36 5 -147 5 -146 135 -118 c74 -64 138 -117 143 -117
21 -2 -1 22 -70 80 -43 35 -102 86 -130 113 l-53 49 0 140 c0 77 3 138 6 134
3 -3 5 -66 5 -141 l-2 -134 73 -62 c40 -34 97 -82 126 -106 59 -52 56 -53 81
53 l13 52 -68 63 c-126 116 -114 93 -114 218 0 67 4 110 10 110 6 0 10 -46 10
-117 l1 -118 75 -65 c93 -81 99 -83 91 -36 -4 24 -1 38 7 43 26 16 36 103 36
312 0 129 -4 212 -10 216 -13 8 -13 35 0 35 5 0 7 -7 4 -15 -4 -9 -1 -15 7
-15 11 0 14 -35 12 -182 -1 -172 -1 -180 13 -138 23 74 46 192 45 242 0 26 4
50 10 53 5 4 -4 20 -21 37 -39 39 -61 82 -63 123 -2 36 -5 36 -59 -14 -16 -14
-28 -21 -28 -15 0 5 20 25 45 44 24 19 49 49 55 66 24 70 114 122 191 109 73
-13 148 -103 149 -179 0 -41 -35 -110 -72 -141 l-31 -26 17 -77 c10 -42 62
-264 118 -492 176 -729 188 -781 188 -791 0 -5 -82 -9 -200 -9 l-200 0 0 -70
c0 -64 2 -70 21 -70 19 0 21 -5 17 -40 -2 -22 -1 -40 3 -40 4 0 28 12 55 28
47 26 54 27 189 26 130 0 151 -3 303 -42 175 -45 217 -50 248 -28 22 16 27 1
-79 203 l-54 102 22 15 c21 14 23 13 38 -18 8 -19 50 -91 91 -161 91 -152 96
-167 65 -189 -36 -25 -114 -20 -287 19 -207 47 -312 58 -414 45 -87 -11 -190
-57 -210 -94 -11 -20 -11 -20 -19 1 -13 35 -168 107 -170 80 0 -9 -2 -8 -6 1
-2 6 -15 12 -28 12 -22 0 -24 -5 -28 -57 l-3 -58 -2 62 -2 63 -77 -6 c-43 -3
-157 -22 -253 -42 -252 -52 -327 -54 -350 -11 -12 22 -17 13 110 229 75 128
110 193 110 207 0 11 -96 -91 -103 -111 -8 -19 -38 -18 -44 1 -3 7 6 17 19 22
13 5 46 29 74 55 28 25 54 43 57 40 3 -4 14 12 24 35 11 26 24 41 35 41 31 0
20 21 -42 82 -59 57 -61 58 -116 58 -42 0 -60 5 -71 18 -13 16 -14 16 -11 -3
3 -17 13 -21 59 -25 51 -5 61 -10 114 -58 32 -29 55 -55 53 -58 -3 -2 -23 13
-44 33 -61 60 -69 64 -133 69 -57 4 -63 3 -86 -22 -14 -15 -25 -33 -25 -41 0
-9 -8 -13 -22 -11 -28 4 -30 31 -3 37 30 5 81 54 77 73 -4 21 15 33 32 19 8
-7 36 -13 64 -15 44 -2 58 -9 108 -51 31 -27 63 -62 70 -79 l13 -31 1 26 c0
19 -12 38 -42 65 -120 107 -149 134 -139 134 5 0 30 -19 54 -42 24 -24 65 -62
90 -84 34 -30 47 -49 47 -68 0 -27 18 -32 67 -18 19 6 16 11 -35 56 -31 27
-84 74 -118 105 -33 31 -91 82 -127 114 l-67 58 0 634 0 634 -65 58 c-58 52
-65 62 -63 93 l1 35 4 -37 c3 -26 11 -42 25 -49z m-223 58 c6 -8 8 -16 5 -19
-3 -3 26 -32 63 -63 37 -32 89 -77 116 -101 l47 -42 0 -193 c0 -191 0 -193 24
-218 24 -25 25 -32 27 -183 2 -87 -1 -161 -6 -165 -4 -5 -5 0 -2 10 7 19 -9
24 -16 5 -3 -8 -6 -7 -6 4 -1 9 4 20 9 23 6 4 10 63 10 145 0 138 0 140 -25
156 l-25 16 0 198 0 198 -72 64 c-88 78 -98 84 -98 63 0 -9 21 -35 47 -58 101
-90 93 -72 93 -210 0 -77 4 -127 11 -134 15 -15 3 -33 -23 -33 -17 0 -19 4
-12 23 5 12 9 78 9 146 l0 123 -65 59 c-36 32 -70 59 -76 59 -6 0 -17 6 -23
14 -9 11 -8 17 9 29 19 13 19 15 3 29 -10 9 -28 19 -40 22 -22 7 -30 26 -16
39 10 10 19 8 32 -6z m138 -54 c3 -10 33 -42 68 -72 55 -47 64 -58 68 -95 2
-22 0 -48 -4 -56 -5 -9 -9 4 -9 35 0 47 -3 54 -47 97 -27 26 -65 54 -85 63
-37 15 -45 25 -31 38 12 13 35 7 40 -10z m633 -15 c22 -18 40 -36 40 -40 0 -4
-16 -29 -36 -55 -19 -25 -50 -74 -67 -107 -31 -60 -32 -64 -32 -196 0 -129 1
-137 29 -190 16 -30 46 -81 67 -112 l39 -57 -47 -41 -47 -41 -18 23 c-34 45
-118 224 -133 283 -18 70 -19 173 -4 247 17 85 138 318 165 318 3 0 23 -15 44
-32z m950 -20 c91 -139 130 -254 130 -383 0 -126 -45 -254 -146 -413 l-15 -23
-44 37 c-25 20 -45 40 -45 45 0 5 23 43 50 85 63 97 84 165 84 274 0 113 -22
181 -90 281 l-55 81 38 34 c21 18 43 33 48 34 6 0 26 -24 45 -52z m-1184 -9
c3 -6 1 -16 -5 -22 -17 -17 -15 -479 2 -496 10 -10 9 -11 -5 -6 -14 6 -18 19
-18 65 0 39 -5 62 -15 70 -8 7 -15 18 -15 25 0 7 7 15 15 19 12 4 15 31 15
154 0 97 -4 152 -11 159 -7 7 -9 19 -6 27 7 18 33 21 43 5z m430 -208 c-25
-29 -56 -101 -62 -143 -7 -48 20 -137 55 -187 l21 -29 -46 -38 c-52 -43 -48
-45 -95 51 -65 136 -62 242 13 372 l42 73 43 -42 c37 -36 41 -44 29 -57z m576
42 c54 -90 63 -120 63 -213 0 -78 -3 -91 -37 -160 -55 -112 -49 -109 -101 -66
l-45 37 33 55 c58 96 58 187 2 271 l-33 48 40 43 c22 23 41 42 42 42 0 0 17
-26 36 -57z m-1264 -159 c-2 -24 1 -44 5 -44 5 0 7 -8 5 -17 -2 -10 -10 -18
-18 -18 -12 0 -14 13 -11 70 3 71 13 105 19 71 2 -10 2 -38 0 -62z m709 -159
c8 -22 -6 -33 -17 -15 -13 20 -12 30 0 30 6 0 13 -7 17 -15z m1180 -7 c-3 -8
-6 -5 -6 6 -1 11 2 17 5 13 3 -3 4 -12 1 -19z m-1427 -24 c6 -14 10 -35 9 -47
-1 -15 -3 -12 -9 10 -4 18 -13 40 -20 48 -9 11 -9 15 -1 15 6 0 16 -12 21 -26z
m315 6 c3 -5 1 -10 -4 -10 -6 0 -11 5 -11 10 0 6 2 10 4 10 3 0 8 -4 11 -10z
m-235 -86 c0 -13 5 -24 10 -24 6 0 10 -13 10 -30 0 -34 -14 -38 -42 -13 -22
20 -23 43 -2 43 13 0 15 7 10 30 -3 19 -2 29 4 25 6 -3 10 -17 10 -31z m162
-172 c8 -9 8 -16 0 -24 -8 -8 -12 -57 -12 -141 l0 -128 -45 32 -45 32 2 161 2
161 6 -159 5 -158 33 -26 32 -25 0 120 c0 79 -4 123 -12 131 -9 9 -9 15 0 24
7 7 13 44 14 83 l2 70 3 -70 c2 -38 9 -75 15 -83z m-182 -282 c16 0 11 -30 -6
-37 -22 -8 -42 13 -26 29 8 8 13 57 14 143 l2 130 3 -132 c2 -77 8 -133 13
-133z m-384 -21 c3 -6 1 -16 -5 -22 -14 -14 -15 -157 -1 -157 13 0 13 -43 0
-56 -11 -11 45 -67 198 -202 57 -50 71 -59 75 -45 3 11 5 5 6 -11 l1 -30 -27
25 c-16 14 -77 69 -138 124 -178 160 -184 168 -149 202 15 15 14 68 -2 156 -5
22 -2 27 15 27 11 0 23 -5 27 -11z m81 -258 c3 -11 50 -58 105 -106 55 -48 97
-89 94 -93 -4 -3 -12 1 -19 10 -23 29 -177 157 -197 163 -20 6 -26 25 -13 38
12 13 25 7 30 -12z m-112 -131 c0 -19 -6 -26 -24 -28 -15 -2 -30 3 -37 12 -11
15 -15 14 -44 -10 -22 -19 -50 -30 -89 -35 -60 -8 -76 -3 -61 21 8 12 13 13
30 3 31 -20 74 -15 100 10 65 61 125 74 125 27z m45 -126 c0 -8 16 -30 35 -48
25 -24 35 -42 34 -62 l-1 -29 -8 29 c-11 36 -58 86 -80 86 -22 0 -30 9 -23 26
7 19 43 18 43 -2z m480 -619 c0 -25 -4 -45 -9 -45 -5 0 -8 19 -6 43 5 51 4 47
10 47 3 0 5 -20 5 -45z m107 -27 c-2 -13 -4 -3 -4 22 0 25 2 35 4 23 2 -13 2
-33 0 -45z m94 28 c5 3 8 -7 8 -23 -1 -21 -3 -23 -7 -8 l-5 20 -8 -20 c-6 -16
-8 -12 -8 15 1 19 3 29 6 22 2 -6 9 -10 14 -6z m-592 -169 c37 -13 77 -59 67
-76 -13 -21 -68 -12 -92 14 -28 30 -72 33 -105 6 l-24 -20 35 -14 c19 -8 56
-18 81 -22 93 -14 135 -62 109 -126 -19 -44 -62 -63 -146 -63 -80 0 -112 15
-144 67 l-20 32 38 7 c33 5 40 3 60 -23 19 -24 31 -29 66 -29 23 0 51 6 62 14
32 25 6 49 -75 69 -110 27 -144 59 -126 117 15 48 136 74 214 47z m288 -82
c17 -49 34 -94 36 -100 2 -5 17 31 32 80 15 50 33 96 38 103 7 8 28 12 61 10
l51 -3 3 -152 3 -153 -40 0 -40 0 -3 108 -3 107 -31 -105 -31 -105 -38 0 -38
0 -38 110 -37 110 -1 -112 -1 -113 -35 0 -35 0 0 148 c0 82 3 152 7 156 4 4
30 6 58 4 l50 -3 32 -90z m373 30 c0 -36 4 -65 8 -65 5 0 41 29 80 65 67 60
76 65 117 65 25 0 45 -4 45 -8 0 -5 -29 -32 -65 -61 -38 -31 -62 -58 -58 -64
3 -7 35 -46 70 -88 35 -43 63 -80 63 -83 0 -3 -22 -6 -48 -6 l-48 0 -48 70
c-27 39 -51 70 -55 70 -3 0 -18 -12 -33 -25 -23 -20 -28 -32 -28 -70 l0 -45
-40 0 -40 0 0 148 c0 82 3 152 7 155 3 4 21 7 40 7 l33 0 0 -65z m460 -41 l75
-96 3 101 3 102 32 -3 32 -3 3 -152 3 -153 -40 0 c-37 0 -41 4 -112 95 l-74
96 -3 -96 -3 -95 -34 0 -35 0 0 149 0 150 28 3 c15 2 32 2 37 1 6 -2 44 -46
85 -99z m428 4 c3 -97 3 -98 27 -98 20 0 25 -5 25 -25 0 -20 -5 -25 -25 -25
-21 0 -25 -5 -25 -30 0 -28 -2 -30 -41 -30 -40 0 -41 1 -37 30 l5 30 -79 0
c-78 0 -78 0 -78 26 0 18 22 53 69 109 95 113 100 117 130 113 26 -3 26 -4 29
-100z m-1674 -320 c41 -12 59 -26 50 -39 -2 -4 -13 -5 -24 -2 -18 5 -20 0 -20
-57 0 -53 -2 -61 -16 -56 -9 3 -18 6 -20 6 -2 0 -4 27 -4 60 0 49 -3 61 -20
70 -11 6 -20 15 -20 20 0 13 24 13 74 -2z m1684 -12 c4 -16 0 -18 -31 -12 -45
8 -69 -13 -65 -58 3 -27 7 -31 32 -31 16 0 31 6 34 13 2 6 -3 12 -12 12 -9 0
-16 7 -16 15 0 8 6 15 14 15 8 0 21 3 29 6 18 6 28 -16 20 -45 -6 -25 -51 -51
-87 -51 -49 0 -69 73 -33 121 31 41 108 52 115 15z m-150 -84 c2 -60 0 -73
-14 -79 -12 -4 -25 4 -45 28 l-27 34 -4 -40 c-2 -29 -8 -41 -21 -43 -16 -3
-18 4 -15 75 3 66 6 78 20 78 9 0 29 -15 43 -34 l25 -35 0 40 c0 23 3 44 7 48
18 17 28 -7 31 -72z m-1390 3 c13 -33 27 -70 32 -82 8 -20 6 -23 -11 -23 -12
0 -23 8 -26 20 -8 29 -50 37 -68 14 -11 -15 -16 -16 -26 -7 -10 10 -8 22 8 60
12 27 24 56 27 66 11 35 39 13 64 -48z m108 -3 l18 -37 4 33 c2 24 8 32 23 32
17 0 19 -7 19 -74 0 -102 -14 -108 -63 -26 l-27 45 0 -42 c0 -30 -4 -43 -14
-43 -11 0 -15 18 -18 73 -2 39 -2 75 -1 79 7 16 42 -7 59 -40z m1114 -27 c17
-36 30 -70 30 -75 0 -15 -31 -12 -44 5 -14 19 -53 9 -61 -16 -4 -10 -16 -19
-27 -19 -15 0 -18 4 -13 18 4 9 16 42 27 72 17 46 40 80 55 80 2 0 17 -29 33
-65z m-130 -35 c0 -72 -2 -80 -19 -80 -12 0 -29 16 -45 43 l-25 42 -1 -47 c0
-36 -4 -48 -15 -48 -12 0 -15 16 -15 80 0 94 12 102 55 40 15 -22 30 -40 33
-40 2 0 2 15 0 33 -6 39 -1 57 18 57 11 0 14 -18 14 -80z m-809 0 c-3 -77 -5
-80 -38 -80 -29 0 -63 25 -63 47 0 19 37 16 44 -4 11 -29 26 5 26 60 0 40 3
48 17 45 14 -2 16 -14 14 -68z m69 -1 c0 -57 1 -60 23 -57 19 3 22 10 25 61 4
80 26 71 30 -12 3 -72 -7 -91 -49 -91 -48 0 -69 31 -69 100 0 53 2 60 20 60
18 0 20 -7 20 -61z m600 -13 c0 -54 -4 -75 -14 -79 -22 -9 -26 2 -26 80 0 66
2 73 20 73 18 0 20 -7 20 -74z m-429 22 l24 -43 3 43 c2 28 8 42 18 42 11 0
14 -17 14 -80 0 -96 -15 -105 -57 -32 l-28 47 -3 -48 c-5 -79 -27 -53 -30 36
-3 69 -1 77 16 77 11 0 28 -16 43 -42z m207 26 c27 -19 28 -34 2 -34 -11 0
-20 5 -20 10 0 6 -13 10 -30 10 -23 0 -31 -5 -36 -26 -9 -37 11 -76 38 -72 25
4 37 28 14 28 -9 0 -16 7 -16 15 0 11 11 15 36 15 35 0 35 -1 32 -37 -3 -35
-6 -39 -41 -47 -48 -12 -88 9 -101 54 -21 72 59 128 122 84z m150 4 c16 -16
15 -53 -1 -66 -6 -6 -24 -13 -38 -17 -19 -5 -29 -15 -33 -36 -3 -17 -12 -29
-21 -29 -12 0 -15 15 -15 80 l0 80 48 0 c26 0 53 -5 60 -12z"/>
<path d="M2501 4488 c-1 -21 4 -38 9 -38 12 0 12 27 0 55 -7 16 -9 13 -9 -17z"/>
<path d="M2176 4534 c-10 -25 -7 -128 4 -144 16 -25 30 7 30 72 0 59 -7 88
-20 88 -4 0 -11 -7 -14 -16z"/>
<path d="M2270 4520 c0 -23 4 -30 20 -30 16 0 20 7 20 30 0 23 -4 30 -20 30
-16 0 -20 -7 -20 -30z"/>
<path d="M2760 4472 c0 -83 5 -99 27 -81 19 17 17 123 -3 143 -8 9 -17 16 -20
16 -2 0 -4 -35 -4 -78z"/>
<path d="M2868 4468 c-3 -27 0 -38 9 -38 14 0 16 24 4 55 -7 16 -9 13 -13 -17z"/>
<path d="M3206 4464 c-11 -30 -6 -120 8 -140 14 -18 15 -18 25 9 14 36 14 76
0 116 -12 34 -24 40 -33 15z"/>
<path d="M1661 4451 c-6 -11 -11 -47 -11 -81 0 -46 4 -62 16 -67 24 -9 34 15
34 83 0 69 -20 102 -39 65z"/>
<path d="M1472 4398 c-16 -16 -16 -134 0 -144 19 -12 38 27 38 77 0 72 -12 93
-38 67z"/>
<path d="M3770 4257 c0 -14 -3 -32 -6 -41 -4 -11 -1 -16 10 -16 14 0 16 7 10
38 -8 46 -14 54 -14 19z"/>
<path d="M2456 3610 c-62 -19 -106 -83 -106 -155 0 -56 19 -95 62 -128 l32
-26 -23 -103 c-13 -57 -70 -294 -127 -528 -139 -575 -174 -720 -174 -731 0 -5
154 -9 383 -9 l383 0 -39 163 c-21 89 -82 342 -136 562 -54 220 -111 455 -127
523 l-28 124 33 25 c35 27 70 92 71 129 0 11 -12 44 -26 73 -21 42 -36 57 -68
72 -45 20 -66 22 -110 9z m60 -427 c7 -44 42 -200 50 -225 5 -16 -3 -18 -66
-18 -57 0 -71 3 -67 14 3 7 18 70 33 140 15 69 31 126 35 126 5 0 11 -17 15
-37z m-66 -348 c-24 -25 -46 -45 -48 -45 -4 0 9 72 15 83 2 4 21 7 41 7 l36 0
-44 -45z m155 -59 c3 -27 9 -55 12 -62 4 -11 -13 -14 -88 -14 l-93 0 74 75
c49 49 77 71 81 62 4 -6 10 -34 14 -61z m-90 -145 c3 -5 -9 -20 -27 -32 -18
-13 -59 -45 -92 -71 -32 -27 -60 -47 -62 -45 -2 2 1 19 6 38 5 19 14 53 20 77
l11 42 69 0 c38 0 71 -4 75 -9z m144 -93 c6 -35 14 -75 18 -90 l5 -28 -127 0
c-72 0 -125 4 -123 9 3 10 199 169 209 170 3 1 11 -27 18 -61z m-95 -176 c5
-8 -70 -72 -243 -209 -36 -28 -67 -50 -69 -48 -3 3 43 224 53 253 5 14 250 18
259 4z m177 -197 c16 -69 29 -131 29 -136 0 -5 -81 -9 -195 -9 -108 0 -195 4
-195 9 0 5 39 40 86 77 47 38 120 97 161 132 42 35 77 61 80 58 2 -2 18 -61
34 -131z"/>
<path d="M2501 3143 c-1 -12 -5 -25 -11 -28 -13 -8 -13 -75 1 -75 6 0 9 -12 7
-27 -2 -20 -9 -28 -22 -28 -11 0 -21 -6 -23 -12 -3 -9 10 -13 47 -13 46 0 51
2 45 18 -4 9 -15 55 -25 102 -10 47 -19 75 -19 63z"/>
<path d="M2430 2849 c0 -5 5 -7 10 -4 6 3 10 8 10 11 0 2 -4 4 -10 4 -5 0 -10
-5 -10 -11z"/>
<path d="M2532 2777 c-45 -46 -42 -57 19 -57 l51 0 -7 37 c-12 65 -18 67 -63
20z"/>
<path d="M2400 2611 c14 -4 24 -13 23 -19 -4 -16 1 -15 39 8 l33 20 -60 -1
c-43 -1 -53 -3 -35 -8z"/>
<path d="M2360 2539 c0 -18 2 -19 15 -9 8 7 15 16 15 21 0 5 -7 9 -15 9 -9 0
-15 -9 -15 -21z"/>
<path d="M2546 2504 l-79 -64 98 0 c96 0 97 0 91 23 -3 12 -9 39 -12 60 -4 20
-10 39 -13 41 -4 3 -42 -25 -85 -60z"/>
<path d="M2323 2338 c-6 -7 -15 -32 -20 -54 l-10 -42 49 -6 c55 -8 68 -3 68
25 0 58 -60 111 -87 77z m65 -47 c6 -8 12 -24 12 -35 -1 -16 -4 -13 -15 11 -7
18 -23 38 -34 45 -12 7 -21 17 -21 22 0 9 35 -17 58 -43z"/>
<path d="M2390 2346 c0 -2 8 -22 18 -43 21 -49 42 -45 42 8 0 37 -2 39 -30 39
-16 0 -30 -2 -30 -4z"/>
<path d="M2460 2319 l0 -30 36 28 c21 16 31 29 24 31 -7 3 -16 -2 -21 -9 -6
-10 -9 -11 -9 -1 0 6 -7 12 -15 12 -10 0 -15 -10 -15 -31z"/>
<path d="M2273 2165 c-9 -25 0 -26 32 -5 l30 20 -28 0 c-16 0 -30 -7 -34 -15z"/>
<path d="M2597 2193 c-92 -74 -97 -80 -97 -115 l0 -38 125 0 c71 0 125 4 125
9 0 14 -49 213 -53 217 -2 2 -47 -31 -100 -73z"/>
<path d="M2435 2060 c-18 -19 -17 -20 3 -20 15 0 22 6 22 20 0 11 -2 20 -3 20
-2 0 -12 -9 -22 -20z"/>
<path d="M1770 3216 c0 -53 16 -78 86 -138 l74 -63 0 -145 0 -144 38 -34 c20
-19 74 -66 120 -104 l82 -70 1 -147 c1 -80 4 -135 6 -121 3 14 16 71 29 128
l25 103 -48 43 c-26 23 -82 71 -123 106 -128 107 -120 90 -120 250 l0 139 -50
43 c-45 39 -50 47 -50 85 0 33 -5 46 -26 62 -31 24 -44 26 -44 7z"/>
<path d="M2100 2140 c0 -9 31 -30 44 -30 3 0 6 9 6 20 0 15 -7 20 -25 20 -14
0 -25 -4 -25 -10z"/>
<path d="M1968 2133 c-54 -3 -68 -7 -68 -20 0 -20 73 -91 107 -104 27 -10 27
-32 0 -37 -10 -2 -21 6 -26 20 -5 13 -28 41 -50 63 -23 21 -41 47 -41 58 0 10
-5 15 -10 12 -6 -4 -8 -16 -5 -28 5 -16 4 -18 -3 -8 -8 11 -14 7 -27 -20 -17
-33 -17 -34 2 -19 10 8 6 3 -9 -12 -15 -15 -28 -34 -28 -42 0 -8 -4 -17 -9
-20 -11 -7 -151 -262 -151 -275 0 -16 36 -31 72 -31 18 0 87 14 153 31 173 45
232 57 305 63 36 2 66 5 68 5 1 1 2 33 2 71 0 63 -2 70 -20 70 -18 0 -20 -7
-20 -60 0 -36 -4 -60 -11 -60 -6 0 -8 9 -4 20 4 12 4 39 0 60 -7 40 -7 40 -51
40 -50 0 -50 0 -28 83 l15 60 -42 43 c-24 24 -46 43 -49 42 -3 -1 -35 -3 -72
-5z"/>
<path d="M2060 2136 c0 -10 71 -58 76 -53 8 8 -47 56 -63 57 -7 0 -13 -2 -13
-4z"/>
<path d="M1655 1980 c-3 -5 -1 -10 4 -10 6 0 11 5 11 10 0 6 -2 10 -4 10 -3 0
-8 -4 -11 -10z"/>
<path d="M2418 1832 l-2 -87 -6 85 -6 85 -5 -80 -5 -80 -2 78 -2 77 -35 0 -35
0 -2 -67 -1 -68 -6 65 c-5 56 -9 65 -26 65 -18 0 -20 -7 -20 -70 0 -68 1 -70
25 -71 14 0 30 -3 35 -6 6 -3 24 -8 40 -12 17 -4 47 -18 67 -32 l38 -24 -7 62
c-3 35 -11 66 -17 70 -8 5 -7 13 2 28 18 29 15 57 -8 63 -19 5 -20 0 -22 -81z"/>
<path d="M1320 3841 c0 -5 5 -13 10 -16 6 -3 10 -2 10 4 0 5 -4 13 -10 16 -5
3 -10 2 -10 -4z"/>
<path d="M1410 3880 c0 -5 5 -10 11 -10 5 0 7 5 4 10 -3 6 -8 10 -11 10 -2 0
-4 -4 -4 -10z"/>
<path d="M1800 3830 c0 -5 5 -10 10 -10 6 0 10 5 10 10 0 6 -4 10 -10 10 -5 0
-10 -4 -10 -10z"/>
<path d="M1440 2330 c0 -5 5 -10 10 -10 6 0 10 5 10 10 0 6 -4 10 -10 10 -5 0
-10 -4 -10 -10z"/>
<path d="M3253 1340 c-43 -49 -42 -62 4 -58 35 3 36 5 40 45 2 23 0 43 -4 46
-4 2 -23 -13 -40 -33z"/>
<path d="M1790 955 c0 -8 4 -15 10 -15 5 0 7 7 4 15 -4 8 -8 15 -10 15 -2 0
-4 -7 -4 -15z"/>
<path d="M3010 925 c0 -8 4 -15 10 -15 5 0 7 7 4 15 -4 8 -8 15 -10 15 -2 0
-4 -7 -4 -15z"/>
<path d="M2645 910 c-3 -5 -4 -14 -1 -19 9 -13 46 -1 46 15 0 16 -36 19 -45 4z"/>
</g>
</svg>
